<mxfile host="app.diagrams.net" modified="2022-11-23T12:57:42.825Z" agent="5.0 (Windows NT 10.0; Win64; x64) AppleWebKit/537.36 (KHTML, like Gecko) Chrome/107.0.0.0 Safari/537.36" etag="flcHnelnUSLIfEe4kb9t" version="20.5.3" type="github">
  <diagram id="mwZtaxJPRewRgJzxUfCi" name="第 1 页">
    <mxGraphModel dx="1038" dy="547" grid="1" gridSize="10" guides="1" tooltips="1" connect="1" arrows="1" fold="1" page="1" pageScale="1" pageWidth="827" pageHeight="1169" math="0" shadow="0">
      <root>
        <mxCell id="0" />
        <mxCell id="1" parent="0" />
        <mxCell id="siPhvs8YDTK5VVcHbR7T-1" value="" style="rounded=0;whiteSpace=wrap;html=1;" vertex="1" parent="1">
          <mxGeometry x="180" y="80" width="460" height="480" as="geometry" />
        </mxCell>
        <mxCell id="siPhvs8YDTK5VVcHbR7T-4" value="" style="endArrow=none;dashed=1;html=1;dashPattern=1 3;strokeWidth=2;rounded=0;" edge="1" parent="1">
          <mxGeometry width="50" height="50" relative="1" as="geometry">
            <mxPoint x="100" y="160" as="sourcePoint" />
            <mxPoint x="700" y="160" as="targetPoint" />
          </mxGeometry>
        </mxCell>
        <mxCell id="siPhvs8YDTK5VVcHbR7T-5" value="" style="endArrow=none;dashed=1;html=1;dashPattern=1 3;strokeWidth=2;rounded=0;" edge="1" parent="1">
          <mxGeometry width="50" height="50" relative="1" as="geometry">
            <mxPoint x="90" y="400" as="sourcePoint" />
            <mxPoint x="680" y="400" as="targetPoint" />
          </mxGeometry>
        </mxCell>
        <mxCell id="siPhvs8YDTK5VVcHbR7T-6" value="" style="endArrow=none;dashed=1;html=1;dashPattern=1 3;strokeWidth=2;rounded=0;" edge="1" parent="1">
          <mxGeometry width="50" height="50" relative="1" as="geometry">
            <mxPoint x="80" y="480" as="sourcePoint" />
            <mxPoint x="680" y="480" as="targetPoint" />
          </mxGeometry>
        </mxCell>
        <mxCell id="siPhvs8YDTK5VVcHbR7T-8" value="&lt;font style=&quot;font-size: 17px;&quot;&gt;应用.web/客户端&lt;/font&gt;" style="text;html=1;align=center;verticalAlign=middle;resizable=0;points=[];autosize=1;strokeColor=none;fillColor=none;" vertex="1" parent="1">
          <mxGeometry x="180" y="100" width="150" height="30" as="geometry" />
        </mxCell>
        <mxCell id="siPhvs8YDTK5VVcHbR7T-9" value="&lt;font style=&quot;font-size: 26px;&quot;&gt;socket库&lt;/font&gt;" style="rounded=0;whiteSpace=wrap;html=1;" vertex="1" parent="1">
          <mxGeometry x="340" y="85" width="260" height="60" as="geometry" />
        </mxCell>
        <mxCell id="siPhvs8YDTK5VVcHbR7T-10" value="协议栈" style="text;html=1;align=center;verticalAlign=middle;resizable=0;points=[];autosize=1;strokeColor=none;fillColor=none;fontSize=17;" vertex="1" parent="1">
          <mxGeometry x="375" y="180" width="70" height="30" as="geometry" />
        </mxCell>
        <mxCell id="siPhvs8YDTK5VVcHbR7T-11" value="TCP连接" style="rounded=0;whiteSpace=wrap;html=1;fontSize=17;" vertex="1" parent="1">
          <mxGeometry x="210" y="220" width="140" height="60" as="geometry" />
        </mxCell>
        <mxCell id="siPhvs8YDTK5VVcHbR7T-12" value="UDP不连接" style="rounded=0;whiteSpace=wrap;html=1;fontSize=17;" vertex="1" parent="1">
          <mxGeometry x="430" y="220" width="140" height="60" as="geometry" />
        </mxCell>
        <mxCell id="siPhvs8YDTK5VVcHbR7T-14" value="IP" style="rounded=0;whiteSpace=wrap;html=1;fontSize=27;" vertex="1" parent="1">
          <mxGeometry x="220" y="310" width="360" height="60" as="geometry" />
        </mxCell>
        <mxCell id="siPhvs8YDTK5VVcHbR7T-15" value="ICMP" style="rounded=0;whiteSpace=wrap;html=1;fontSize=27;" vertex="1" parent="1">
          <mxGeometry x="225" y="320" width="75" height="30" as="geometry" />
        </mxCell>
        <mxCell id="siPhvs8YDTK5VVcHbR7T-16" value="APR" style="rounded=0;whiteSpace=wrap;html=1;fontSize=27;" vertex="1" parent="1">
          <mxGeometry x="500" y="330" width="60" height="30" as="geometry" />
        </mxCell>
        <mxCell id="siPhvs8YDTK5VVcHbR7T-17" value="控制网卡" style="rounded=0;whiteSpace=wrap;html=1;fontSize=27;" vertex="1" parent="1">
          <mxGeometry x="230" y="410" width="360" height="60" as="geometry" />
        </mxCell>
        <mxCell id="siPhvs8YDTK5VVcHbR7T-18" value="物理网卡" style="rounded=0;whiteSpace=wrap;html=1;fontSize=27;" vertex="1" parent="1">
          <mxGeometry x="230" y="490" width="360" height="60" as="geometry" />
        </mxCell>
        <mxCell id="siPhvs8YDTK5VVcHbR7T-19" value="应用程序" style="text;html=1;align=center;verticalAlign=middle;resizable=0;points=[];autosize=1;strokeColor=none;fillColor=none;fontSize=27;" vertex="1" parent="1">
          <mxGeometry x="640" y="95" width="130" height="50" as="geometry" />
        </mxCell>
        <mxCell id="siPhvs8YDTK5VVcHbR7T-20" value="操作系统" style="text;html=1;align=center;verticalAlign=middle;resizable=0;points=[];autosize=1;strokeColor=none;fillColor=none;fontSize=27;" vertex="1" parent="1">
          <mxGeometry x="650" y="250" width="130" height="50" as="geometry" />
        </mxCell>
        <mxCell id="siPhvs8YDTK5VVcHbR7T-21" value="驱动程序" style="text;html=1;align=center;verticalAlign=middle;resizable=0;points=[];autosize=1;strokeColor=none;fillColor=none;fontSize=27;" vertex="1" parent="1">
          <mxGeometry x="650" y="415" width="130" height="50" as="geometry" />
        </mxCell>
        <mxCell id="siPhvs8YDTK5VVcHbR7T-22" value="硬件" style="text;html=1;align=center;verticalAlign=middle;resizable=0;points=[];autosize=1;strokeColor=none;fillColor=none;fontSize=27;" vertex="1" parent="1">
          <mxGeometry x="665" y="490" width="80" height="50" as="geometry" />
        </mxCell>
      </root>
    </mxGraphModel>
  </diagram>
</mxfile>
